<svg xmlns="http://www.w3.org/2000/svg" viewBox="0 0 256 256" role="img" aria-label="ClipVault">
  <defs>
    <linearGradient id="tile" x1="44" y1="20" x2="212" y2="236" gradientUnits="userSpaceOnUse">
      <stop offset="0" stop-color="#2b2b2b"/>
      <stop offset="1" stop-color="#171717"/>
    </linearGradient>
    <linearGradient id="accent" x1="74" y1="44" x2="188" y2="212" gradientUnits="userSpaceOnUse">
      <stop offset="0" stop-color="#ff7a8e"/>
      <stop offset="1" stop-color="#ff3f62"/>
    </linearGradient>
  </defs>
  <rect x="18" y="18" width="220" height="220" rx="48" fill="url(#tile)"/>
  <rect x="23" y="23" width="210" height="210" rx="43" fill="none" stroke="#ff5a70" stroke-opacity=".42" stroke-width="10"/>
  <path d="M91 75c0-13.8 11.2-25 25-25h24c13.8 0 25 11.2 25 25v10h-17V75c0-4.4-3.6-8-8-8h-24c-4.4 0-8 3.6-8 8v10H91V75Z" fill="url(#accent)"/>
  <rect x="70" y="82" width="116" height="128" rx="24" fill="#242424" stroke="url(#accent)" stroke-width="12"/>
  <path d="M101 116h54M101 143h54M101 170h32" stroke="#f5f5f5" stroke-opacity=".88" stroke-width="12" stroke-linecap="round"/>
  <path d="M167 152c11 0 20 9 20 20s-9 20-20 20-20-9-20-20 9-20 20-20Z" fill="#191919" stroke="url(#accent)" stroke-width="10"/>
  <path d="M167 169v13" stroke="#ff6d80" stroke-width="8" stroke-linecap="round"/>
</svg>
